<?xml version="1.0" encoding="UTF-8"?>
<svg xmlns="http://www.w3.org/2000/svg" xmlns:xlink="http://www.w3.org/1999/xlink" width="40px" height="40px" viewBox="0 0 40 40" version="1.1">
<g id="surface1">
<path style=" stroke:none;fill-rule:nonzero;fill:rgb(3.921569%,3.921569%,3.921569%);fill-opacity:1;" d="M 34.28125 12.761719 L 5.71875 12.761719 C 4.761719 12.761719 4 12 4 11.039062 C 4 10.078125 4.761719 9.320312 5.71875 9.320312 L 34.320312 9.320312 C 35.28125 9.320312 36.039062 10.078125 36.039062 11.039062 C 36 12 35.238281 12.761719 34.28125 12.761719 Z M 34.28125 12.761719 "/>
<path style=" stroke:none;fill-rule:nonzero;fill:rgb(3.921569%,3.921569%,3.921569%);fill-opacity:1;" d="M 34.28125 18.71875 L 5.71875 18.71875 C 4.761719 18.71875 4 17.960938 4 17 C 4 16.039062 4.761719 15.28125 5.71875 15.28125 L 34.320312 15.28125 C 35.28125 15.28125 36.039062 16.039062 36.039062 17 C 36 17.960938 35.238281 18.71875 34.28125 18.71875 Z M 34.28125 18.71875 "/>
<path style=" stroke:none;fill-rule:nonzero;fill:rgb(3.921569%,3.921569%,3.921569%);fill-opacity:1;" d="M 34.28125 24.679688 L 5.71875 24.679688 C 4.761719 24.679688 4 23.921875 4 22.960938 C 4 22 4.761719 21.238281 5.71875 21.238281 L 34.320312 21.238281 C 35.28125 21.238281 36.039062 22 36.039062 22.960938 C 36 23.921875 35.238281 24.679688 34.28125 24.679688 Z M 34.28125 24.679688 "/>
<path style=" stroke:none;fill-rule:nonzero;fill:rgb(3.921569%,3.921569%,3.921569%);fill-opacity:1;" d="M 34.28125 30.679688 L 5.71875 30.679688 C 4.761719 30.679688 4 29.921875 4 28.960938 C 4 28 4.761719 27.238281 5.71875 27.238281 L 34.320312 27.238281 C 35.28125 27.238281 36.039062 28 36.039062 28.960938 C 36 29.921875 35.238281 30.679688 34.28125 30.679688 Z M 34.28125 30.679688 "/>
</g>
</svg>
